<?xml version="1.0" standalone="no"?>
<!DOCTYPE svg PUBLIC "-//W3C//DTD SVG 20010904//EN"
 "http://www.w3.org/TR/2001/REC-SVG-20010904/DTD/svg10.dtd">
<svg version="1.0" xmlns="http://www.w3.org/2000/svg"
 width="700.000000pt" height="700.000000pt" viewBox="0 0 700.000000 700.000000"
 preserveAspectRatio="xMidYMid meet">
<metadata>
Created by potrace 1.14, written by Peter Selinger 2001-2017
</metadata>
<g transform="translate(0.000000,700.000000) scale(0.100000,-0.100000)"
fill="#000000" stroke="none">
<path d="M1989 5723 c-3 -106 0 -3635 3 -3638 2 -3 195 -6 429 -7 l424 -3 2
-400 c0 -220 2 -404 2 -408 2 -14 879 -5 967 10 450 77 815 336 1031 733 56
103 121 289 138 395 3 22 10 63 15 90 9 49 6 437 -4 485 -3 14 -7 48 -11 75
-35 316 -166 682 -334 930 -285 423 -694 653 -1246 701 -16 1 -57 3 -90 3
l-60 1 0 525 0 525 -632 0 c-596 0 -633 -1 -634 -17z m850 -398 c3 -4 6 -239
6 -523 l0 -517 185 -1 c248 -1 360 -10 502 -40 37 -7 81 -16 98 -19 82 -14
311 -109 409 -170 212 -130 390 -370 475 -640 65 -207 84 -344 86 -635 2 -194
-3 -244 -35 -367 -54 -203 -178 -393 -345 -528 -93 -75 -239 -146 -375 -183
-80 -21 -117 -24 -337 -29 -205 -4 -248 -3 -249 8 -1 8 -2 100 -3 204 l-1 191
80 2 c117 2 194 10 261 27 314 80 525 414 527 835 2 276 -84 538 -229 699
-120 134 -263 195 -504 217 -82 7 -519 13 -535 7 -12 -4 -14 -1167 -2 -1179
12 -12 387 -11 396 1 4 6 7 178 6 383 l0 372 45 1 c25 1 47 1 50 1 85 -5 158
-16 179 -26 86 -46 160 -189 179 -348 22 -183 -7 -344 -83 -463 -49 -77 -84
-98 -180 -110 -57 -6 -1037 -7 -1043 0 -3 3 -6 641 -6 1418 l-1 1412 90 5
c116 6 345 3 354 -5z"/>
</g>
</svg>
